<?xml version="1.0" encoding="utf-8"?>
<!-- Generator: Adobe Illustrator 18.0.0, SVG Export Plug-In . SVG Version: 6.00 Build 0)  -->
<!DOCTYPE svg PUBLIC "-//W3C//DTD SVG 1.1//EN" "http://www.w3.org/Graphics/SVG/1.1/DTD/svg11.dtd">
<svg version="1.1" xmlns="http://www.w3.org/2000/svg" xmlns:xlink="http://www.w3.org/1999/xlink" x="0px" y="0px"
	 viewBox="0 0 170.1 73.7" enable-background="new 0 0 170.1 73.7" xml:space="preserve">
<g id="Layer_3">
	<rect x="-341.6" y="-120.2" display="none" fill="#231F20" width="840.9" height="596.6"/>
</g>
<g id="Layer_1">
</g>
<g id="Layer_2">
	<g>
		<path fill="#005BAA" d="M139.9,50.5c0-2.2,1.8-4,4-4c2.2,0,4,1.8,4,4c0,2.2-1.8,4-4,4C141.7,54.5,139.9,52.7,139.9,50.5"/>
		<path fill="#005BAA" d="M130.8,48.8c0-2.2,1.8-4,4-4c2.2,0,4,1.8,4,4c0,2.2-1.8,4-4,4C132.6,52.8,130.8,51,130.8,48.8"/>
		<path fill="#005BAA" d="M122.9,43.4c0-2.2,1.8-4,4-4c2.2,0,4,1.8,4,4c0,2.2-1.8,4-4,4C124.7,47.4,122.9,45.6,122.9,43.4"/>
		<path fill="#005BAA" d="M117.6,35.5c0-2.2,1.8-4,4-4c2.2,0,4,1.8,4,4c0,2.2-1.8,4-4,4C119.3,39.5,117.6,37.7,117.6,35.5"/>
		<path fill="#005BAA" d="M115.8,26.4c0-2.2,1.8-4,4-4c2.2,0,4,1.8,4,4c0,2.2-1.8,4-4,4C117.6,30.4,115.8,28.6,115.8,26.4"/>
		<path fill="#005BAA" d="M124.7,26.4c0-10.6,8.6-19.2,19.2-19.2c10.6,0,19.2,8.6,19.2,19.2c0,10.6-8.6,19.2-19.2,19.2
			C133.3,45.6,124.7,37,124.7,26.4"/>
	</g>
	<g>
		<path fill="#005BAA" d="M84.7,50.5c0-2.2,1.8-4,4-4c2.2,0,4,1.8,4,4c0,2.2-1.8,4-4,4C86.5,54.5,84.7,52.7,84.7,50.5"/>
		<path fill="#005BAA" d="M75.6,48.7c0-2.2,1.8-4,4-4c2.2,0,4,1.8,4,4c0,2.2-1.8,4-4,4C77.4,52.7,75.6,50.9,75.6,48.7"/>
		<path fill="#005BAA" d="M67.7,43.4c0-2.2,1.8-4,4-4c2.2,0,4,1.8,4,4c0,2.2-1.8,4-4,4C69.5,47.4,67.7,45.6,67.7,43.4"/>
		<path fill="#005BAA" d="M62.4,35.5c0-2.2,1.8-4,4-4c2.2,0,4,1.8,4,4c0,2.2-1.8,4-4,4C64.2,39.5,62.4,37.7,62.4,35.5"/>
		<path fill="#005BAA" d="M60.6,26.4c0-2.2,1.8-4,4-4c2.2,0,4,1.8,4,4c0,2.2-1.8,4-4,4C62.3,30.3,60.6,28.6,60.6,26.4"/>
		<path fill="#005BAA" d="M69.6,26.4c0-10.6,8.6-19.2,19.2-19.2c10.6,0,19.2,8.6,19.2,19.2c0,10.6-8.6,19.2-19.2,19.2
			C78.2,45.5,69.6,36.9,69.6,26.4"/>
	</g>
	<g>
		<path fill="#005BAA" d="M29.8,50.5c0-2.2,1.8-4,4-4c2.2,0,4,1.8,4,4c0,2.2-1.8,4-4,4C31.6,54.5,29.8,52.7,29.8,50.5"/>
		<path fill="#005BAA" d="M20.6,48.8c0-2.2,1.8-4,4-4c2.2,0,4,1.8,4,4c0,2.2-1.8,4-4,4C22.4,52.8,20.6,51,20.6,48.8"/>
		<path fill="#005BAA" d="M12.7,43.4c0-2.2,1.8-4,4-4c2.2,0,4,1.8,4,4c0,2.2-1.8,4-4,4C14.5,47.4,12.7,45.6,12.7,43.4"/>
		<path fill="#005BAA" d="M7.4,35.5c0-2.2,1.8-4,4-4c2.2,0,4,1.8,4,4c0,2.2-1.8,4-4,4C9.2,39.5,7.4,37.7,7.4,35.5"/>
		<path fill="#005BAA" d="M5.6,26.4c0-2.2,1.8-4,4-4c2.2,0,4,1.8,4,4c0,2.2-1.8,4-4,4C7.4,30.4,5.6,28.6,5.6,26.4"/>
		<path fill="#005BAA" d="M14.6,26.4c0-10.6,8.6-19.2,19.2-19.2s19.2,8.6,19.2,19.2c0,10.6-8.6,19.2-19.2,19.2S14.6,36.9,14.6,26.4"
			/>
	</g>
	<g>
		<path fill="#F68B22" d="M9.2,65.8v-4.6h4c0.4,0,0.6,0.1,0.8,0.2c0.2,0.1,0.2,0.4,0.2,0.7v0.6c0,0.2-0.1,0.4-0.2,0.5
			s-0.3,0.2-0.6,0.2c0.3,0,0.5,0.1,0.6,0.3c0.1,0.2,0.2,0.4,0.2,0.6v0.6c0,0.3-0.1,0.5-0.3,0.7c-0.2,0.1-0.6,0.2-1,0.2H9.2z
			 M12.7,62h-2.4v1.1h2.4c0.2,0,0.3,0,0.4-0.1s0.1-0.1,0.1-0.3v-0.4c0-0.1,0-0.2-0.1-0.3S12.9,62,12.7,62z M12.7,63.8h-2.4V65h2.4
			c0.2,0,0.3,0,0.4-0.1c0.1-0.1,0.1-0.2,0.1-0.3v-0.3c0-0.2,0-0.3-0.1-0.3C13,63.9,12.9,63.8,12.7,63.8z"/>
		<path fill="#F68B22" d="M16.8,62.1v3.1h2.6v-3.1h0.9v2.9c0,0.3-0.1,0.6-0.2,0.7s-0.4,0.2-0.8,0.2h-2.5c-0.4,0-0.6-0.1-0.8-0.2
			c-0.1-0.1-0.2-0.4-0.2-0.7v-2.9H16.8z"/>
		<path fill="#F68B22" d="M22.1,65.8v-3.8h2.5c0.7,0,1.3,0.2,1.7,0.5s0.6,0.8,0.6,1.4c0,0.6-0.2,1.1-0.6,1.4c-0.4,0.3-1,0.5-1.9,0.5
			H22.1z M23,65.1h1.2c0.6,0,1.1-0.1,1.4-0.3s0.4-0.5,0.4-1c0-0.4-0.1-0.7-0.3-0.9c-0.2-0.2-0.5-0.3-1-0.3H23V65.1z"/>
		<path fill="#F68B22" d="M27.7,65.8l2.2-3.8h0.9l2.3,3.8h-1L31.6,65h-2.5l-0.5,0.8H27.7z M29.5,64.3h1.7l-0.9-1.6L29.5,64.3z"/>
		<path fill="#F68B22" d="M35.8,65.8l-2.3-3.8h1l1.6,2.7l1.5-2.7h1l-2.2,3.8H35.8z"/>
		<path fill="#F68B22" d="M39.1,65.8l2.2-3.8h0.9l2.3,3.8h-1L43,65h-2.5L40,65.8H39.1z M40.9,64.3h1.7l-0.9-1.6L40.9,64.3z
			 M41.1,61.6l0.9-1.5h1l-1.3,1.5H41.1z"/>
		<path fill="#F68B22" d="M45.5,65.8v-3.8h3.4c0.3,0,0.5,0.1,0.7,0.2c0.1,0.1,0.2,0.3,0.2,0.6v0.9c0,0.3-0.1,0.4-0.2,0.6
			c-0.1,0.1-0.4,0.2-0.7,0.2h-0.5l1.8,1.4h-1.3l-1.6-1.4h-0.9v1.4H45.5z M48.5,62.7h-2.1v1h2.1c0.2,0,0.3,0,0.3-0.1
			c0.1,0,0.1-0.1,0.1-0.2V63c0-0.1,0-0.2-0.1-0.2C48.8,62.7,48.6,62.7,48.5,62.7z"/>
		<path fill="#F68B22" d="M51.6,65.8v-4.6h1.1v4.6H51.6z"/>
		<path fill="#F68B22" d="M67.3,62h-3v1h2.9c0.5,0,0.8,0.1,0.9,0.2c0.2,0.2,0.2,0.4,0.2,0.9v0.6c0,0.4-0.1,0.7-0.2,0.9
			c-0.2,0.2-0.5,0.2-0.9,0.2h-2.8c-0.5,0-0.8-0.1-0.9-0.2c-0.2-0.2-0.2-0.4-0.2-0.9v-0.1l0.9-0.2V65h3.3v-1h-2.9
			c-0.4,0-0.8-0.1-0.9-0.2c-0.2-0.2-0.2-0.4-0.2-0.9v-0.5c0-0.4,0.1-0.7,0.2-0.9c0.2-0.2,0.5-0.2,0.9-0.2h2.6c0.4,0,0.7,0.1,0.9,0.2
			c0.2,0.1,0.2,0.4,0.2,0.8v0.1l-0.9,0.2V62z"/>
		<path fill="#F68B22" d="M73.5,62.7H71v2.4h2.5v-0.8l0.9,0.2v0.4c0,0.3-0.1,0.6-0.2,0.7s-0.4,0.2-0.8,0.2h-2.4
			c-0.4,0-0.6-0.1-0.8-0.2s-0.2-0.4-0.2-0.7v-2c0-0.3,0.1-0.6,0.2-0.7s0.4-0.2,0.8-0.2h2.4c0.4,0,0.7,0.1,0.8,0.2s0.2,0.4,0.2,0.7
			v0.4l-0.9,0.1V62.7z"/>
		<path fill="#F68B22" d="M76,65.8v-3.8h0.9v1.4h2.9v-1.4h0.9v3.8h-0.9v-1.6h-2.9v1.6H76z"/>
		<path fill="#F68B22" d="M82.3,62.9c0-0.3,0.1-0.6,0.2-0.7s0.4-0.2,0.8-0.2h2.9c0.4,0,0.7,0.1,0.8,0.2c0.1,0.1,0.2,0.4,0.2,0.7v2
			c0,0.3-0.1,0.6-0.2,0.7c-0.1,0.1-0.4,0.2-0.8,0.2h-2.9c-0.4,0-0.6-0.1-0.8-0.2s-0.2-0.4-0.2-0.7V62.9z M83.2,65.1h3v-2.4h-3V65.1z
			 M83.5,61.4v-1h0.9v1H83.5z M85,61.4v-1h0.9v1H85z"/>
		<path fill="#F68B22" d="M88.8,65.8v-3.8h0.6l3.2,2.5v-2.5h0.8v3.8h-0.6l-3.2-2.5v2.5H88.8z"/>
		<path fill="#F68B22" d="M95.1,65.8v-3.8h0.9v1.4h2.9v-1.4h0.9v3.8h-0.9v-1.6h-2.9v1.6H95.1z"/>
		<path fill="#F68B22" d="M101.5,65.8v-3.8h4.1v0.7h-3.1v0.8h1.8v0.6h-1.8v0.9h3.2v0.7H101.5z"/>
		<path fill="#F68B22" d="M107,65.8v-3.8h3.4c0.3,0,0.5,0.1,0.7,0.2c0.1,0.1,0.2,0.3,0.2,0.6v0.9c0,0.3-0.1,0.4-0.2,0.6
			c-0.1,0.1-0.4,0.2-0.7,0.2h-0.5l1.8,1.4h-1.3l-1.6-1.4h-0.9v1.4H107z M110,62.7h-2.1v1h2.1c0.2,0,0.3,0,0.3-0.1s0.1-0.1,0.1-0.2
			V63c0-0.1,0-0.2-0.1-0.2S110.1,62.7,110,62.7z"/>
		<path fill="#F68B22" d="M112.5,65.8v-0.5l3.2-3.3h-2.9v-0.8h4.6v0.5l-3.3,3.3h3.3v0.9H112.5z"/>
		<path fill="#F68B22" d="M131.5,62h-3v1h2.9c0.5,0,0.8,0.1,0.9,0.2c0.2,0.2,0.2,0.4,0.2,0.9v0.6c0,0.4-0.1,0.7-0.2,0.9
			c-0.2,0.2-0.5,0.2-0.9,0.2h-2.8c-0.5,0-0.8-0.1-0.9-0.2c-0.2-0.2-0.2-0.4-0.2-0.9v-0.1l0.9-0.2V65h3.3v-1h-2.9
			c-0.4,0-0.8-0.1-0.9-0.2c-0.2-0.2-0.2-0.4-0.2-0.9v-0.5c0-0.4,0.1-0.7,0.2-0.9c0.2-0.2,0.5-0.2,0.9-0.2h2.6c0.4,0,0.7,0.1,0.9,0.2
			c0.2,0.1,0.2,0.4,0.2,0.8v0.1l-0.9,0.2V62z"/>
		<path fill="#F68B22" d="M136.6,62.7v3.1h-0.9v-3.1h-1.8v-0.7h4.6v0.7H136.6z"/>
		<path fill="#F68B22" d="M140.6,62.1v3.1h2.6v-3.1h0.9v2.9c0,0.3-0.1,0.6-0.2,0.7c-0.1,0.1-0.4,0.2-0.8,0.2h-2.5
			c-0.4,0-0.6-0.1-0.8-0.2c-0.1-0.1-0.2-0.4-0.2-0.7v-2.9H140.6z M141.3,61.6l0.9-1.5h1l-1.3,1.5H141.3z"/>
		<path fill="#F68B22" d="M145.8,65.8v-3.8h2.5c0.7,0,1.3,0.2,1.7,0.5c0.4,0.3,0.6,0.8,0.6,1.4c0,0.6-0.2,1.1-0.6,1.4
			c-0.4,0.3-1,0.5-1.9,0.5H145.8z M146.7,65.1h1.2c0.6,0,1.1-0.1,1.4-0.3s0.4-0.5,0.4-1c0-0.4-0.1-0.7-0.3-0.9
			c-0.2-0.2-0.5-0.3-1-0.3h-1.6V65.1z"/>
		<path fill="#F68B22" d="M152,65.8v-3.8h0.9v3.8H152z"/>
		<path fill="#F68B22" d="M154.8,62.3c0-0.4,0.1-0.7,0.2-0.9c0.2-0.2,0.5-0.2,0.9-0.2h3.4c0.4,0,0.8,0.1,0.9,0.2
			c0.2,0.2,0.2,0.4,0.2,0.9v2.4c0,0.4-0.1,0.7-0.2,0.9c-0.2,0.2-0.5,0.2-0.9,0.2H156c-0.4,0-0.8-0.1-0.9-0.2
			c-0.2-0.2-0.2-0.4-0.2-0.9V62.3z M155.9,65h3.5V62h-3.5V65z M157,60.7l0.9-1.5h1l-1.3,1.5H157z"/>
	</g>
	<g>
		<path fill="#FFFFFF" d="M27.4,36V17.7h10.9c1,0,1.7,0.3,2.2,0.9s0.7,1.5,0.7,2.7v2.2c0,0.9-0.2,1.6-0.6,2.1
			c-0.4,0.5-0.9,0.9-1.6,1c0.7,0.1,1.3,0.5,1.7,1.1c0.4,0.6,0.6,1.4,0.6,2.4v2.3c0,1.2-0.3,2.1-0.9,2.7c-0.6,0.6-1.6,0.9-2.8,0.9
			H27.4z M37.1,20.7h-6.8V25h6.8c0.5,0,0.9-0.1,1.1-0.3c0.2-0.2,0.3-0.5,0.3-1V22c0-0.5-0.1-0.8-0.3-1
			C37.9,20.8,37.6,20.7,37.1,20.7z M37.1,28.1h-6.8v4.7h6.8c0.6,0,0.9-0.1,1.1-0.4c0.2-0.2,0.3-0.7,0.3-1.3v-1.4
			c0-0.6-0.1-1-0.3-1.3C38,28.2,37.6,28.1,37.1,28.1z"/>
		<path fill="#FFFFFF" d="M93.1,20.9h-8.4v3.9h8c1.2,0,2.1,0.3,2.5,0.9s0.7,1.8,0.7,3.4v2.5c0,1.7-0.2,2.8-0.7,3.4S94,36,92.7,36
			h-7.9c-1.2,0-2.1-0.3-2.5-0.9s-0.7-1.8-0.7-3.4v-0.5l2.6-0.8v2.2h9v-4.2h-8c-1.2,0-2.1-0.3-2.5-0.9c-0.4-0.6-0.7-1.8-0.7-3.4v-2
			c0-1.7,0.2-2.8,0.7-3.4c0.4-0.6,1.3-0.9,2.5-0.9h7.2c1.2,0,2,0.3,2.5,0.9c0.5,0.6,0.7,1.6,0.7,3.1v0.4L93.1,23V20.9z"/>
		<path fill="#FFFFFF" d="M148.2,20.9h-8.4v3.9h8c1.2,0,2.1,0.3,2.5,0.9s0.7,1.8,0.7,3.4v2.5c0,1.7-0.2,2.8-0.7,3.4S149,36,147.8,36
			h-7.9c-1.2,0-2.1-0.3-2.5-0.9s-0.7-1.8-0.7-3.4v-0.5l2.6-0.8v2.2h9v-4.2h-8c-1.2,0-2.1-0.3-2.5-0.9c-0.4-0.6-0.7-1.8-0.7-3.4v-2
			c0-1.7,0.2-2.8,0.7-3.4c0.4-0.6,1.3-0.9,2.5-0.9h7.2c1.2,0,2,0.3,2.5,0.9c0.5,0.6,0.7,1.6,0.7,3.1v0.4l-2.6,0.9V20.9z"/>
	</g>
	<path fill="#FFFFFF" d="M76.9,13.1C76.9,13.1,77,13.1,76.9,13.1"/>
</g>
</svg>
